Coordinates
version=1
nRows=13
nColumns=36
inDegrees=yes

Units are S.I. units (second, meters, Newtons, ...)
If the header above contains a line with 'inDegrees', this indicates whether rotational values are in degrees (yes) or radians (no).

endheader
time	pelvis_tilt	pelvis_list	pelvis_rotation	pelvis_tx	pelvis_ty	pelvis_tz	hip_flexion_r	hip_adduction_r	hip_rotation_r	knee_angle_r	knee_angle_r_beta	ankle_angle_r	subtalar_angle_r	mtp_angle_r	hip_flexion_l	hip_adduction_l	hip_rotation_l	knee_angle_l	knee_angle_l_beta	ankle_angle_l	subtalar_angle_l	mtp_angle_l	lumbar_extension	lumbar_bending	lumbar_rotation	arm_flex_r	arm_add_r	arm_rot_r	elbow_flex_r	pro_sup_r	arm_flex_l	arm_add_l	arm_rot_l	elbow_flex_l	pro_sup_l
     44.30000000	      4.22649792	      4.62944189	    167.10964277	      0.30242684	      0.90795425	      0.70499645	      9.28731710	      6.21791540	      5.85485908	     50.16109619	      0.87547628	     17.42457536	    -14.02751199	     -7.49999987	     33.31870968	    -10.62156295	      1.53151149	     46.00907276	      0.80300981	      0.23833981	    -29.29041574	     -7.49999987	    -11.76005795	      3.80205624	     10.18163372	     17.68599928	    -15.00933692	     -2.14354727	     36.14231840	     87.99041453	     10.53804911	     -2.55972412	    -11.87072709	      8.98083790	     91.79465360
     44.31666670	      3.95054669	      3.99647318	    167.66424229	      0.29584765	      0.90589781	      0.70706790	     10.71046433	      4.66343270	      4.73804110	     55.91604617	      0.97591911	     15.45272061	    -13.98461553	     -7.49999987	     32.31846561	     -9.11817012	      1.30279936	     45.31989274	      0.79098134	      0.02510615	    -28.64676124	     -7.49999987	    -11.54936135	      3.21862442	      9.19951107	     16.46914082	    -14.49184010	     -2.39758155	     35.87116891	     87.96053410	     10.51383422	     -2.53418523	    -11.86664404	      9.13531405	     91.78023440
     44.33333330	      3.77852281	      3.14411766	    168.34323296	      0.28875155	      0.90378384	      0.70876344	     12.31929822	      2.75518677	      3.65516560	     61.58550829	      1.07486989	     12.28127840	    -13.89786300	     -7.49999987	     31.21725472	     -7.47402743	      0.58308176	     43.96872830	      0.76739908	     -0.25736599	    -28.42340709	     -7.49999987	    -10.92925991	      2.40464273	      8.16592488	     14.94786708	    -13.63027782	     -3.49498809	     34.99546764	     87.94229014	     10.52126473	     -2.61495754	    -11.50871038	      9.26621982	     91.94832034
     44.35000000	      3.39756060	      2.35124952	    169.16682552	      0.28353953	      0.90239500	      0.71166199	     13.61768223	      0.68836657	      2.59138695	     66.52697197	      1.16111470	      8.13845663	    -14.19057690	     -7.49999987	     29.66014905	     -5.87195376	     -0.38075149	     42.05207615	      0.73394719	     -0.57597408	    -27.54443406	     -7.49999987	    -10.61703897	      1.61207539	      6.91713184	     13.29538089	    -12.91913940	     -3.78324780	     34.47962706	     87.90535483	     10.57180818	     -2.83903402	    -11.25911223	      9.58238470	     91.99646082
     44.36666670	      3.19442234	      1.62157531	    169.65405706	      0.28165786	      0.90279277	      0.71587667	     15.25493671	     -1.13166666	      2.27628056	     70.57088675	      1.23169433	      3.62190355	    -15.39405678	     -7.49999987	     28.28438183	     -4.57189684	     -1.82198484	     40.05711916	      0.69912862	     -1.09773613	    -26.65508078	     -7.49999987	    -10.38069105	      0.92413395	      5.85575512	     12.09391815	    -12.11351836	     -4.33311747	     33.78995950	     87.84135859	     10.67355306	     -3.13720989	    -10.75273618	     10.13013125	     92.12876948
     44.38333330	      3.17438198	      1.15880592	    170.12790054	      0.27946964	      0.90568223	      0.72064811	     17.12230028	     -2.42562100	      2.38231129	     73.71574312	      1.28658243	     -0.89221993	    -17.51876592	     -7.49999987	     27.20437999	     -3.55066193	     -3.13853376	     38.37730980	      0.66981041	     -1.44181755	    -25.49573016	     -7.49999987	    -10.07833784	      0.61646039	      4.99044958	     11.03108255	    -11.26468879	     -5.67788490	     32.64548877	     88.18518213	     10.74611859	     -3.46065040	     -9.10776943	     10.92960521	     92.87686284
     44.40000000	      3.06736148	      0.37830169	    170.72052250	      0.27440085	      0.90961135	      0.72357444	     18.89447578	     -3.85283350	      2.84447664	     76.35717738	      1.33268415	     -3.87712546	    -18.87545304	     -7.49999987	     25.99162729	     -2.11915951	     -4.15132629	     36.94337068	      0.64478346	     -1.59140248	    -24.16858480	     -7.49999987	     -9.79280201	     -0.06025625	      3.91808996	      9.67022450	    -10.57180481	     -5.89620419	     32.07497583	     88.25565475	     10.84560443	     -3.72430559	     -8.71094423	     11.46241995	     92.94938334
     44.41666670	      3.19140711	     -0.30932869	    171.39450353	      0.26958856	      0.91222473	      0.72376209	     20.82455704	     -4.74531753	      3.44246124	     78.36708801	      1.36776371	     -6.71003164	    -20.84499795	     -7.49999987	     25.11361002	     -0.95161081	     -4.62277085	     36.32345072	      0.63396381	     -0.63585998	    -22.55349256	     -7.49999987	     -9.06819055	     -0.70309072	      2.89926790	      8.39718212	     -9.63755827	     -6.73365743	     30.54411714	     88.56209692	     10.70133253	     -4.19248985	     -7.75847170	     12.20413532	     93.28491748
     44.43333330	      3.09156942	     -0.73611547	    172.20346179	      0.26900287	      0.91478038	      0.72450377	     22.79769161	     -5.45161995	      3.70370349	     79.57346605	      1.38881898	     -7.83056360	    -21.41039392	     -7.49999987	     24.04933518	      0.08811665	     -4.07052743	     36.04808676	      0.62915780	      0.16410968	    -21.88373377	     -7.49999987	     -8.96132520	     -1.06968613	      2.02775501	      6.89913080	     -9.10659621	     -6.81519961	     29.89429756	     88.56629563	     10.91813214	     -4.47819095	     -7.62886122	     12.65051151	     93.26640458
     44.45000000	      4.19861921	     -1.00840719	    172.45810313	      0.27256729	      0.91670960	      0.72566325	     26.66813576	     -5.47580763	      4.37631091	     79.23735688	      1.38295277	     -9.47346110	    -24.22224268	     -7.49999987	     24.64725685	      0.25934524	     -4.47404045	     36.28280449	      0.63325440	      2.22980265	    -19.42819150	     -7.49999987	     -7.48664534	     -1.07534295	      1.42102142	      5.71340582	     -8.28001904	     -7.82409395	     28.40620222	     88.83570139	     10.33399288	     -5.10759603	     -6.07780562	     13.72901583	     93.14356194
     44.46666670	      5.20104758	     -0.87174246	    172.46051159	      0.27834528	      0.92288334	      0.72803049	     30.22415108	     -5.17319079	      4.97903985	     75.66702006	      1.32063864	    -10.75122310	    -26.18330838	     -7.49999987	     24.89627953	      0.15798021	     -4.76823974	     35.40848764	      0.61799469	      2.93435652	    -18.34339148	     -7.49999987	     -6.56072796	     -0.44954037	      1.35785907	      4.34418292	     -7.98489115	     -8.19377431	     27.57040497	     86.49758001	     10.11736746	     -5.27611544	     -5.82622839	     14.72543032	     90.43661893
     44.48333330	      5.89444677	     -0.98483262	    172.23469109	      0.28411257	      0.93354006	      0.72920514	     32.48077067	     -5.10497974	      5.80267178	     68.35474808	      1.19301541	    -12.67864660	    -27.50783291	     -7.49999987	     24.01165420	      0.37515161	     -5.47573289	     32.56694422	      0.56840040	      2.19241917	    -17.27438402	     -7.49999987	     -6.20570277	     -0.08227268	      1.15103720	      3.15855161	     -7.66672359	     -8.43910562	     27.20108931	     84.74687460	     10.09034050	     -5.69449007	     -5.59188912	     15.83250105	     88.49978340
     44.50000000	      6.06742652	     -0.94841688	    172.36135244	      0.28755674	      0.94228336	      0.72855384	     32.27888589	     -5.08267011	      6.03234899	     58.16721121	      1.01520935	    -15.00264351	    -27.24798960	     -7.49999987	     21.76785009	      0.66788484	     -5.82551362	     28.65038920	      0.50004362	      1.74529986	    -15.02323630	     -7.49999987	     -6.22050873	      0.25148658	      0.68997325	      2.44827431	     -7.30683526	     -8.79592956	     25.33995966	     86.00777566	     10.39620576	     -6.23411492	     -4.80281682	     16.33108259	     90.09837475
